<svg width="15" height="18" viewBox="0 0 15 18" fill="none" xmlns="http://www.w3.org/2000/svg">
<path d="M0 7.00502V15.8031C0 16.8769 0.870433 17.7473 1.94423 17.7473C1.94603 17.7473 1.9482 17.7473 1.95 17.7473H13.0558C14.1296 17.7473 15 16.8769 15 15.8031V7.00502C15 5.93014 14.1306 5.05826 13.0558 5.05502H11.8212C11.9913 4.87942 12.1424 4.68615 12.2712 4.47809C12.7731 3.63795 12.799 2.5966 12.3404 1.73194C11.9405 1.03386 11.1887 0.61235 10.3846 0.635787C9.50986 0.608023 8.66683 0.964273 8.07692 1.61079C7.84651 1.8549 7.65216 2.13074 7.5 2.43002C7.35685 2.13254 7.17224 1.8567 6.95192 1.61079C6.36202 0.964273 5.51899 0.608023 4.64423 0.635787C3.83978 0.611629 3.0869 1.03026 2.68269 1.72617C2.22404 2.59084 2.25 3.63218 2.75192 4.47233C2.88065 4.68038 3.03173 4.87365 3.20192 5.04925H1.95C0.872957 5.04925 0 5.92221 0 6.99925C0 7.00105 0 7.00321 0 7.00502ZM13.8462 7.00502V15.8031C13.8462 16.2398 13.4924 16.5935 13.0558 16.5935H8.07692L8.11731 6.20886H13.0731C13.5036 6.22148 13.8465 6.57413 13.8462 7.00502ZM10.3846 1.81271C10.7773 1.78639 11.1512 1.98543 11.3481 2.32617C11.6062 2.83278 11.5778 3.43819 11.2731 3.91848C11.025 4.35117 10.3731 5.07233 8.80385 5.07233H8.07692C8.07692 4.37425 8.20962 3.13386 8.87885 2.40117C9.26286 1.98038 9.81599 1.75574 10.3846 1.78963V1.81271ZM3.73269 3.8954C3.428 3.41511 3.39952 2.80971 3.65769 2.30309C3.85385 1.96415 4.22452 1.76547 4.61538 1.78963C5.16851 1.75574 5.70865 1.96668 6.09231 2.36656C6.76731 3.11656 6.88846 4.35694 6.92308 5.05502H6.20192C4.61538 5.05502 3.98077 4.32809 3.73269 3.8954ZM1.15385 7.00502C1.15385 6.56547 1.51046 6.20886 1.95 6.20886H6.92308L6.88269 16.5935H1.95C1.51334 16.5967 1.15709 16.2455 1.15385 15.8089C1.15385 15.8071 1.15385 15.8049 1.15385 15.8031V7.00502Z" fill="#FF1A53"/>
</svg>
