<svg width="15" height="16" viewBox="0 0 15 16" fill="none" xmlns="http://www.w3.org/2000/svg">
<path d="M2.39206 7.5556V10.1138C2.39206 12.6721 3.41763 13.6977 5.97588 13.6977H9.04691C11.6052 13.6977 12.6307 12.6721 12.6307 10.1138V7.5556M7.51424 8.00002C8.55691 8.00002 9.3261 7.15107 9.22354 6.1084L8.84749 2.30237H6.18669L5.80495 6.1084C5.70239 7.15107 6.47157 8.00002 7.51424 8.00002ZM11.1095 8.00002C12.2604 8.00002 13.1036 7.0656 12.9897 5.92038L12.8301 4.35352C12.625 2.87213 12.0553 2.30237 10.5625 2.30237H8.8247L9.22354 6.29642C9.3204 7.23653 10.1693 8.00002 11.1095 8.00002ZM3.89054 8.00002C4.83065 8.00002 5.6796 7.23653 5.77076 6.29642L6.1696 2.30237H4.43182C2.93903 2.30237 2.36927 2.87213 2.16415 4.35352L2.01032 5.92038C1.89636 7.0656 2.73961 8.00002 3.89054 8.00002ZM7.51424 10.8488C6.56274 10.8488 6.08983 11.3217 6.08983 12.2733V13.6977H8.93866V12.2733C8.93866 11.3217 8.46575 10.8488 7.51424 10.8488Z" stroke="#0F172A" stroke-width="1.5" stroke-linecap="round" stroke-linejoin="round"/>
</svg>
