<svg width="18" height="20" viewBox="0 0 18 20" fill="none" xmlns="http://www.w3.org/2000/svg">
<path fill-rule="evenodd" clip-rule="evenodd" d="M15.2007 14.8447C15.2007 15.0535 15.0312 15.223 14.8224 15.223H7.67819C7.46932 15.223 7.29981 15.0535 7.29981 14.8447C7.29981 14.6358 7.46932 14.4663 7.67819 14.4663H14.8224C15.0312 14.4663 15.2007 14.6358 15.2007 14.8447ZM15.2007 12.1393C15.2007 12.3481 15.0312 12.5176 14.8224 12.5176H7.67819C7.46932 12.5176 7.29981 12.3481 7.29981 12.1393C7.29981 11.9304 7.46932 11.7609 7.67819 11.7609H14.8224C15.0312 11.7609 15.2007 11.9304 15.2007 12.1393ZM14.8224 9.05546C15.0312 9.05546 15.2007 9.22497 15.2007 9.43346C15.2007 9.64195 15.0312 9.81184 14.8224 9.81184H7.67819C7.46932 9.81184 7.29981 9.64232 7.29981 9.43346C7.29981 9.22459 7.46932 9.05546 7.67819 9.05546H14.8224ZM17.244 17.6836V5.50096H12.6157L11.4817 7.8034C11.4158 7.93697 11.2815 8.01454 11.1419 8.01454C11.0859 8.01454 11.0287 8.00205 10.975 7.97556C10.7877 7.88324 10.7105 7.65659 10.8028 7.46891L11.7723 5.50096H5.25656V17.6836H9.47587L9.477 17.6799L9.48835 17.6836H17.2436H17.244ZM13.5226 19.0227L11.7681 18.4404H13.7273L13.5226 19.0227ZM0.857138 14.6888L4.4998 15.903V5.12258C4.4998 4.91334 4.66931 4.7442 4.87818 4.7442H9.24014L4.67915 3.22349L0.857138 14.6888ZM12.5517 2.10841C12.6228 1.81971 12.8018 1.57603 13.0565 1.42203C13.2324 1.31571 13.4299 1.26122 13.6305 1.26122C13.7198 1.26122 13.8098 1.27181 13.8987 1.29376C14.4947 1.44057 14.8598 2.04484 14.7134 2.64079C14.5666 3.23636 13.9623 3.60187 13.3667 3.45506C13.078 3.38393 12.8344 3.20495 12.6804 2.9503C12.5264 2.69603 12.481 2.39711 12.5521 2.10841H12.5517ZM17.6224 4.7442H12.9884L13.254 4.20463C13.3807 4.23112 13.5071 4.24436 13.6324 4.24436C14.4724 4.24436 15.2382 3.67301 15.4478 2.82166C15.5674 2.33657 15.4906 1.83408 15.2322 1.40689C14.9737 0.979704 14.5643 0.678514 14.0796 0.558946C13.5945 0.439756 13.092 0.516189 12.6648 0.774622C12.2377 1.03306 11.9365 1.44246 11.8169 1.92754C11.6973 2.41225 11.7741 2.91474 12.0326 3.34193C12.1692 3.56782 12.3481 3.75814 12.5581 3.90533L12.145 4.7442H11.6334L4.55958 2.38614C4.46461 2.35398 4.36055 2.36155 4.2705 2.40657C4.18082 2.4516 4.11234 2.5303 4.08093 2.62528L0.0194059 14.8083C-0.012378 14.9037 -0.00481039 15.0074 0.0398384 15.0974C0.0844872 15.1871 0.16319 15.2552 0.258542 15.287L4.49942 16.7006V18.062C4.49942 18.2709 4.66893 18.4404 4.8778 18.4404H9.36576L13.6365 19.8582C13.6763 19.8714 13.7164 19.8775 13.7557 19.8775C13.912 19.8775 14.058 19.7799 14.1125 19.6247L14.5287 18.4404H17.6216C17.8305 18.4404 18 18.2709 18 18.062V5.12258C18 4.91334 17.8305 4.7442 17.6216 4.7442H17.6224Z" fill="black"/>
</svg>
