<svg width="14" height="15" viewBox="0 0 14 15" fill="none" xmlns="http://www.w3.org/2000/svg" id="order-icon">
<path d="M3.50188 5.58114H7M3.93914 7.91322H6.56273M12.8302 3.83208V5.24299C12.8302 6.16416 12.2472 6.74718 11.326 6.74718H9.33207V2.67187C9.33207 2.02472 9.86263 1.5 10.5098 1.5C11.1453 1.50583 11.7283 1.76236 12.1481 2.18213C12.5678 2.60774 12.8302 3.19076 12.8302 3.83208ZM1.1698 12.5774C1.1698 13.0613 1.71782 13.3353 2.10262 13.0438L3.09959 12.2975C3.3328 12.1226 3.6593 12.1459 3.86918 12.3558L4.83698 13.3295C5.06436 13.5568 5.43752 13.5568 5.66489 13.3295L6.64436 12.35C6.84842 12.1459 7.1749 12.1226 7.40228 12.2975L8.39926 13.0438C8.78405 13.3295 9.33207 13.0554 9.33207 12.5774V2.66604C9.33207 2.02472 9.85679 1.5 10.4981 1.5H3.50188C1.75282 1.5 1.1698 2.5436 1.1698 3.83208V12.5774Z" stroke="#0F172A" stroke-width="1.5" stroke-linecap="round" stroke-linejoin="round"/>
</svg>
